<?xml version="1.0" encoding="utf-8"?>
<!-- Generator: Adobe Illustrator 13.0.0, SVG Export Plug-In . SVG Version: 6.00 Build 14948)  -->
<!DOCTYPE svg PUBLIC "-//W3C//DTD SVG 1.0//EN" "http://www.w3.org/TR/2001/REC-SVG-20010904/DTD/svg10.dtd">
<svg version="1.0" id="Ebene_1" xmlns="http://www.w3.org/2000/svg" xmlns:xlink="http://www.w3.org/1999/xlink" x="0px" y="0px"
	 width="334.44px" height="446.456px" viewBox="0 0 334.44 446.456" enable-background="new 0 0 334.44 446.456"
	 xml:space="preserve">
<path fill="#00519E" d="M166.721,39.218c-20.564,22.436-45.228,24.858-54.877,24.858c-19.815,0-39.128-8.4-54.381-23.653
	l-0.556-0.556L0.123,116.455l0.47,0.412c14.376,12.606,33.489,32.424,33.489,58.872c0,16.293-6.146,27.497-13.261,40.47
	C11.062,234,0,254.166,0,294.037c0,29.015,12.856,67.792,48.938,89.612c17.052,10.313,30.198,12.346,42.91,14.313
	c7.203,1.114,14.649,2.266,22.681,4.935c16.609,5.52,34.054,19.815,51.851,42.49l0.841,1.071l0.841-1.071
	c17.795-22.674,35.241-36.97,51.852-42.49c8.03-2.668,15.477-3.82,22.68-4.935c12.712-1.966,25.858-4,42.911-14.313
	c36.08-21.82,48.937-60.597,48.937-89.612c0-39.871-11.062-60.037-20.82-77.829c-7.116-12.973-13.261-24.177-13.261-40.47
	c0-26.447,19.113-46.265,33.489-58.872l0.47-0.412l-56.785-76.588l-0.556,0.556c-15.252,15.253-34.565,23.653-54.381,23.653
	c-9.649,0-34.313-2.422-54.876-24.858l-0.5-0.546L166.721,39.218z"/>
<path fill="#FFFFFF" d="M167.22,40.644c20.827,22.336,45.625,24.789,55.376,24.789c19.936,0,39.353-8.351,54.774-23.509
	c0.894,1.208,54.387,73.356,55.114,74.336c-8.807,7.73-33.482,29.858-33.482,59.478c0,16.641,6.223,27.986,13.429,41.122
	c9.68,17.65,20.652,37.653,20.652,77.176c0,28.644-12.683,66.923-48.281,88.452c-16.823,10.173-29.833,12.185-42.416,14.131
	c-7.257,1.123-14.762,2.283-22.901,4.988c-16.796,5.582-34.379,19.938-52.264,42.657c-17.886-22.72-35.469-37.075-52.265-42.657
	c-8.138-2.705-15.643-3.865-22.9-4.988c-12.583-1.946-25.593-3.958-42.416-14.131C14.041,360.96,1.358,322.681,1.358,294.037
	c0-39.523,10.972-59.526,20.652-77.176c7.206-13.136,13.429-24.481,13.429-41.122c0-29.62-24.676-51.748-33.482-59.478
	c0.727-0.98,54.219-73.129,55.114-74.336c15.421,15.158,34.838,23.509,54.774,23.509C121.596,65.433,146.394,62.98,167.22,40.644z"
	/>
<path fill="#E2001A" d="M306.716,219.995c-4.679-8.531-9.189-16.762-11.836-26.374h-27.792v190.427
	c4.469-1.739,9.195-4.024,14.34-7.137c33.28-20.126,45.137-56.007,45.137-82.875C326.566,256.184,316.021,236.958,306.716,219.995z"
	/>
<path fill="#E2001A" d="M39.56,193.621c-2.646,9.611-7.156,17.842-11.836,26.374c-9.304,16.963-19.849,36.189-19.849,74.042
	c0,26.868,11.857,62.749,45.138,82.875c5.145,3.112,9.87,5.397,14.34,7.137V193.621H39.56z"/>
<path fill="#E2001A" d="M133.931,193.621V403.61c10.98,6.941,22.113,17.093,33.29,30.354c11.177-13.261,22.31-23.412,33.289-30.354
	V193.621H133.931z"/>
<path fill="#00519E" d="M67.352,193.621v190.427c9.186,3.574,17.287,4.83,25.699,6.132c7.524,1.163,15.303,2.366,23.96,5.244
	c5.588,1.857,11.234,4.592,16.92,8.186V193.621H67.352z"/>
<path fill="#00519E" d="M200.509,193.621V403.61c5.686-3.594,11.332-6.329,16.92-8.186c8.657-2.878,16.436-4.081,23.96-5.244
	c8.413-1.302,16.513-2.558,25.699-6.132V193.621H200.509z"/>
<path fill="#00519E" d="M292.485,175.738c0-28.279,19.875-49.794,31.239-60.352c-6.13-8.269-39.948-53.88-47.298-63.792
	c-15.663,13.176-34.5,20.355-53.83,20.355c-20.196,0-39.995-8-55.376-22.132c-15.381,14.132-35.181,22.132-55.376,22.132
	c-19.33,0-38.167-7.179-53.83-20.355c-7.35,9.912-41.167,55.524-47.297,63.792c11.363,10.558,31.238,32.073,31.238,60.352
	c0,5.394-0.604,10.289-1.637,14.856h253.804C293.089,186.027,292.485,181.132,292.485,175.738z"/>
<polygon fill="#00519E" points="263.563,25.326 242.752,20.729 240.504,0 229.702,18.372 209.292,14.104 223.426,30.055 
	213.062,48.146 232.599,39.634 246.603,55.082 244.543,33.87 "/>
<polygon fill="#00519E" points="104.738,18.371 93.936,0 91.688,20.729 70.877,25.326 89.897,33.87 87.837,55.082 101.841,39.634 
	121.378,48.146 111.014,30.055 125.148,14.104 "/>
<polygon fill="#FFED00" points="259.285,25.766 241.513,21.84 239.601,4.205 230.375,19.894 213.014,16.264 225.083,29.885 
	216.265,45.276 232.948,38.006 244.862,51.148 243.103,33.034 "/>
<polygon fill="#FFED00" points="104.065,19.894 94.84,4.205 92.927,21.84 75.157,25.766 91.336,33.034 89.578,51.148 
	101.491,38.006 118.175,45.276 109.357,29.885 121.427,16.264 "/>
<path fill="#FFFFFF" d="M153.802,166.113c0,1.491-0.407,2.65-1.215,3.458c-0.814,0.815-1.942,1.222-3.371,1.222
	c-1.447,0-2.575-0.414-3.39-1.241c-0.808-0.821-1.215-1.968-1.215-3.44v-16.429h-8.302v16.046c0,1.322,0.256,2.838,0.771,4.549
	c0.319,1.065,0.909,2.099,1.773,3.101c0.864,1.002,1.817,1.78,2.857,2.325c1.04,0.545,2.33,0.909,3.878,1.09
	c1.547,0.188,2.976,0.276,4.286,0.276c2.268,0,4.204-0.3,5.82-0.896c1.166-0.432,2.275-1.172,3.333-2.231
	c1.059-1.059,1.836-2.299,2.331-3.709c0.496-1.416,0.747-2.913,0.747-4.505v-16.046h-8.303V166.113z"/>
<path fill="#FFFFFF" d="M123.194,169.49c-0.814,0.896-2.017,1.341-3.608,1.341c-1.636,0-2.907-0.551-3.816-1.661
	c-0.902-1.109-1.36-3.151-1.36-6.14c0-2.412,0.382-4.179,1.141-5.307c1.002-1.517,2.45-2.274,4.33-2.274
	c0.833,0,1.585,0.169,2.261,0.514c0.671,0.345,1.241,0.833,1.705,1.466c0.282,0.382,0.551,0.984,0.808,1.805l7.343-1.635
	c-0.94-2.838-2.381-4.943-4.323-6.316c-1.943-1.372-4.605-2.055-7.995-2.055c-4.33,0-7.682,1.196-10.05,3.59
	c-2.368,2.387-3.553,5.814-3.553,10.269c0,3.34,0.677,6.078,2.017,8.221c1.348,2.143,2.952,3.64,4.807,4.493
	c1.848,0.846,4.242,1.271,7.168,1.271c2.406,0,4.392-0.344,5.952-1.046c1.56-0.695,2.87-1.729,3.922-3.102s1.824-3.077,2.312-5.12
	l-7.287-2.205C124.598,167.304,124.009,168.6,123.194,169.49z"/>
<path fill="#FFFFFF" d="M93.245,166.113c0,1.491-0.408,2.65-1.216,3.458c-0.814,0.815-1.942,1.222-3.371,1.222
	c-1.447,0-2.575-0.414-3.39-1.241c-0.808-0.821-1.215-1.968-1.215-3.44v-16.429H75.75v16.046c0,1.322,0.257,2.838,0.771,4.549
	c0.319,1.065,0.909,2.099,1.772,3.101c0.865,1.002,1.818,1.78,2.857,2.325c1.041,0.545,2.331,0.909,3.879,1.09
	c1.547,0.188,2.976,0.276,4.285,0.276c2.269,0,4.205-0.3,5.821-0.896c1.167-0.432,2.275-1.172,3.333-2.231
	c1.06-1.059,1.837-2.299,2.331-3.709c0.495-1.416,0.747-2.913,0.747-4.505v-16.046h-8.302V166.113z"/>
<path fill="#FFFFFF" d="M66.722,162.278c1.271-0.438,2.236-1.04,2.9-1.798c0.99-1.14,1.485-2.506,1.485-4.098
	c0-1.893-0.695-3.483-2.086-4.769c-1.384-1.285-3.377-1.93-5.971-1.93h-15.57v26.911h14.355c0.614,0,1.854-0.125,3.729-0.37
	c1.409-0.182,2.462-0.476,3.158-0.877c1.127-0.652,2.01-1.529,2.663-2.645c0.645-1.115,0.971-2.368,0.971-3.766
	c0-1.71-0.457-3.133-1.366-4.267C70.073,163.544,68.651,162.742,66.722,162.278z M55.869,155.135h3.671
	c1.26,0,2.143,0.219,2.657,0.664c0.507,0.439,0.758,1.053,0.758,1.836c0,0.84-0.25,1.485-0.758,1.937
	c-0.514,0.445-1.417,0.67-2.714,0.67h-3.615V155.135z M63.137,170.054c-0.582,0.507-1.591,0.758-3.025,0.758h-4.242v-5.451h4.223
	c1.459,0,2.475,0.244,3.058,0.727c0.583,0.482,0.871,1.121,0.871,1.917C64.021,168.863,63.726,169.546,63.137,170.054z"/>
<rect x="278.628" y="149.684" fill="#FFFFFF" width="8.333" height="26.911"/>
<polygon fill="#FFFFFF" points="249.26,156.332 257.738,156.332 257.738,176.595 266.053,176.595 266.053,156.332 274.537,156.332 
	274.537,149.684 249.26,149.684 "/>
<polygon fill="#FFFFFF" points="205.168,165.198 218.107,165.198 218.107,159.709 205.168,159.709 205.168,155.43 219.117,155.43 
	219.117,149.684 196.835,149.684 196.835,176.595 219.523,176.595 219.523,170.499 205.168,170.499 "/>
<path fill="#FFFFFF" d="M242.456,160.875c-1.572-0.803-4.173-1.598-7.807-2.381c-1.473-0.307-2.4-0.633-2.795-0.99
	c-0.4-0.345-0.602-0.727-0.602-1.153c0-0.589,0.244-1.09,0.733-1.497c0.488-0.414,1.216-0.614,2.187-0.614
	c1.171,0,2.092,0.276,2.757,0.821c0.67,0.551,1.109,1.435,1.316,2.644l7.838-0.457c-0.344-2.789-1.416-4.825-3.221-6.103
	c-1.804-1.278-4.429-1.917-7.87-1.917c-2.801,0-5.006,0.351-6.617,1.052c-1.61,0.708-2.813,1.673-3.615,2.901
	c-0.803,1.228-1.203,2.537-1.203,3.922c0,2.105,0.783,3.835,2.35,5.195c1.554,1.359,4.154,2.443,7.801,3.264
	c2.23,0.489,3.647,1.008,4.26,1.56c0.615,0.551,0.916,1.178,0.916,1.874c0,0.733-0.319,1.378-0.958,1.936
	c-0.646,0.558-1.561,0.833-2.745,0.833c-1.591,0-2.819-0.539-3.671-1.629c-0.527-0.677-0.878-1.654-1.047-2.938l-7.913,0.495
	c0.231,2.719,1.228,4.957,2.994,6.717c1.761,1.767,4.932,2.644,9.505,2.644c2.606,0,4.768-0.376,6.479-1.128
	c1.717-0.751,3.051-1.854,4.004-3.314c0.953-1.454,1.435-3.045,1.435-4.769c0-1.473-0.363-2.801-1.077-3.985
	C245.175,162.667,244.029,161.677,242.456,160.875z"/>
<path fill="#FFFFFF" d="M189.003,167.122c-0.583-0.72-1.027-1.191-1.328-1.41c-0.458-0.332-1.179-0.664-2.168-0.996
	c1.235-0.276,2.206-0.633,2.92-1.059c1.109-0.677,1.986-1.554,2.625-2.638c0.633-1.084,0.953-2.369,0.953-3.866
	c0-1.71-0.414-3.164-1.248-4.355c-0.833-1.196-1.929-2.011-3.289-2.45c-1.354-0.445-3.321-0.664-5.89-0.664h-13.86v26.911h8.351
	v-10.921h0.734c0.759,0,1.441,0.207,2.036,0.62c0.445,0.32,0.947,1.015,1.51,2.074l4.442,8.227h9.398l-4.022-7.8
	C189.974,168.4,189.586,167.848,189.003,167.122z M183.132,159.377c-0.352,0.451-0.803,0.732-1.354,0.846
	c-1.09,0.244-1.823,0.363-2.199,0.363h-3.51v-5.47h3.654c1.517,0,2.55,0.232,3.102,0.702c0.552,0.463,0.827,1.128,0.827,1.999
	C183.652,158.406,183.477,158.926,183.132,159.377z"/>
<polygon fill="#FFFFFF" points="98.263,132.458 109.696,132.458 109.696,101.417 121.363,101.417 121.363,91.234 86.606,91.234 
	86.606,101.417 98.263,101.417 "/>
<path fill="#FFFFFF" d="M81.584,123.041c1.735-3.311,2.615-6.935,2.615-10.859c0-3.354-0.663-6.378-1.964-9.075
	c-1.302-2.711-3.392-4.966-6.258-6.792c-2.867-1.827-7.605-3.639-14.229-5.423c-2.685-0.699-4.374-1.441-5.093-2.254
	c-0.731-0.785-1.097-1.655-1.097-2.625c0-1.341,0.446-2.482,1.336-3.411c0.891-0.941,2.215-1.398,3.985-1.398
	c2.135,0,3.814,0.628,5.024,1.87c1.222,1.256,2.022,3.268,2.398,6.022l14.287-1.042c-0.629-6.35-2.581-10.987-5.87-13.898
	c-3.289-2.911-8.074-4.366-14.343-4.366c-5.104,0-9.125,0.798-12.059,2.396c-2.935,1.612-5.127,3.81-6.588,6.607
	c-1.462,2.797-2.192,5.779-2.192,8.933c0,4.794,1.427,8.733,4.282,11.83c2.833,3.096,7.572,5.565,14.217,7.434
	c4.066,1.113,6.647,2.297,7.766,3.553c1.119,1.256,1.667,2.683,1.667,4.266c0,1.67-0.583,3.14-1.748,4.41
	c-1.176,1.27-2.843,1.898-5.001,1.898c-2.901,0-5.139-1.228-6.691-3.71c-0.959-1.541-1.6-3.768-1.907-6.692l-14.423,1.127
	c0.422,6.193,2.238,11.287,5.458,15.297c3.208,4.023,8.987,6.021,17.324,6.021c4.75,0,8.69-0.856,11.808-2.568
	C77.416,128.877,79.849,126.366,81.584,123.041z"/>
<polygon fill="#FFFFFF" points="159.074,123.119 139.334,123.119 139.334,114.999 157.126,114.999 157.126,106.591 139.334,106.591 
	139.334,100.036 158.513,100.036 158.513,91.234 127.875,91.234 127.875,132.458 159.074,132.458 "/>
<path fill="#FFFFFF" d="M176.331,125.653h13.026l1.818,6.805h11.968l-13.915-41.224h-12.467l-13.906,41.224h11.684L176.331,125.653z
	 M182.87,101.917l4.093,14.819h-8.159L182.87,101.917z"/>
<path fill="#FFFFFF" d="M296.337,132.458L277.217,71.46h-17.132l-19.109,60.997h16.055l2.461-10.069h17.902l2.498,10.069H296.337z
	 M263.874,110.494l4.606-19.961l5.61,20.03L263.874,110.494z"/>
<path fill="#FFFFFF" d="M209.932,127.534c1.188,1.536,2.498,2.726,3.929,3.561c1.43,0.835,3.205,1.392,5.333,1.67
	c2.128,0.288,4.093,0.422,5.894,0.422c3.12,0,5.781-0.46,8.004-1.373c1.603-0.662,3.127-1.794,4.583-3.417
	c1.456-1.622,2.524-3.522,3.206-5.682c0.68-2.169,1.025-4.463,1.025-6.901V91.234H230.49V116.4c0,2.284-0.56,4.06-1.672,5.298
	c-1.12,1.249-2.671,1.872-4.635,1.872c-1.99,0-3.541-0.634-4.661-1.9c-1.112-1.258-1.671-3.014-1.671-5.27V91.234h-11.416v24.581
	c0,2.025,0.353,4.348,1.06,6.968C207.933,124.414,208.742,125.999,209.932,127.534z"/>
<polygon fill="#FFED00" points="242.19,273.182 184.93,273.167 167.22,218.713 149.512,273.167 92.25,273.182 138.567,306.852 
	120.886,361.314 167.22,327.669 213.554,361.314 195.875,306.852 "/>
</svg>
